<svg xmlns="http://www.w3.org/2000/svg" height="511pt" viewBox="0 -43 511.999 511" width="511pt"><path d="M358.395 53.453c16.449-48.191 53.261-55.594 87.472-14.516 14.172 2.782 25.828 10.04 34.215 19.84l.902 1.082c8.621 10.504 13.559 23.7 14.055 37.305 33.832 40.645 14.637 78.625-36.2 86.262l-30.558 4.68L346.883 87.48zm0 0" fill="#4bc6c0" fill-rule="evenodd"/><path d="M370.227 29.867C365.613 36.13 361.609 44 358.395 53.45l-10.899 32.188c.293.09.586.175.879.265a115.083 115.083 0 0125.535 11.352l7.856-23.262c12.738-37.281 37.632-50.152 64.101-35.055-27.492-33.035-56.707-34.73-75.64-9.07zm0 0" fill="#1ba188" fill-rule="evenodd"/><path d="M390.262 116.875c-1.23 0-2.48-.293-3.645-.914a7.799 7.799 0 01-3.226-10.543l17.265-32.54c2.02-3.8 6.739-5.245 10.535-3.226 3.801 2.02 5.243 6.739 3.227 10.543l-17.266 32.54a7.799 7.799 0 01-6.89 4.14zm23.378 27.738a7.786 7.786 0 01-7.382-5.32c-1.367-4.086.832-8.504 4.91-9.871l34.828-11.676a7.786 7.786 0 019.86 4.918 7.801 7.801 0 01-4.91 9.871l-34.829 11.672a7.721 7.721 0 01-2.476.406zm-10.308-14.425a7.758 7.758 0 01-5.984-2.805 7.798 7.798 0 01.992-10.98l43.445-36.286a7.785 7.785 0 0110.973.992 7.806 7.806 0 01-.992 10.985l-43.446 36.281a7.746 7.746 0 01-4.988 1.813zm0 0" fill="#1ba188"/><path d="M414.695 138.57c32.43 55.621 13.703 127.075-41.836 159.555-55.57 32.508-126.918 13.723-159.347-41.902-32.461-55.653-13.703-127.075 41.84-159.582 55.566-32.48 126.882-13.723 159.343 41.93zm0 0" fill="#9bdeda" fill-rule="evenodd"/><path d="M406.164 223.922c43.063-27.067 76.34-9.598 77.074 43.86 9.29 11.12 13.758 24.109 14.11 36.984l.027 1.437c.09 13.574-4.379 26.977-12.531 37.832.73 52.903-38.04 70.34-82.332 44.211l-26.703-15.656V243.086zm0 0" fill="#8edb74" fill-rule="evenodd"/><path d="M395.672 296.742a7.524 7.524 0 01-6.926-4.59 7.531 7.531 0 013.98-9.87l32.692-13.9c3.82-1.624 8.238.161 9.863 3.99a7.53 7.53 0 01-3.984 9.87l-32.688 13.899a7.53 7.53 0 01-2.937.601zm33.926 47.458a7.511 7.511 0 01-2.633-.481l-33.2-12.43a7.53 7.53 0 01-4.406-9.687 7.521 7.521 0 019.68-4.414l33.195 12.43c3.891 1.456 5.864 5.792 4.41 9.687a7.533 7.533 0 01-7.046 4.894zm-32.211-29.524a7.526 7.526 0 01-7.52-7.422 7.526 7.526 0 017.418-7.633l54.633-.762h.105a7.526 7.526 0 017.52 7.422 7.526 7.526 0 01-7.414 7.633l-54.637.762h-.105zm0 0" fill="#4bc25f"/><g fill-rule="evenodd"><path d="M347.496 85.637c-29.828-8.953-63.133-5.969-92.144 11.004-19.985 11.703-35.207 28.441-44.993 47.664-7.277 14.308-11.57 30.02-12.535 46.027 4.82 5.441 11.219 8.836 18.082 9.594 2.809-18.227 9.875-35.668 20.805-50.793 9.203-12.73 21.152-23.817 35.613-32.246 27.871-16.297 59.688-19.723 88.61-12.024 18.554 4.942 35.91 14.422 50.222 28.028a113.148 113.148 0 00-7.828-10.504 117.55 117.55 0 00-13.058-13.313 114.481 114.481 0 00-16.364-11.82 114.923 114.923 0 00-25.535-11.352zm0 0" fill="#4bc6c0"/><path d="M430.18 213.066c-7.508 1.93-15.575 5.528-24.016 10.856l-28.691 18.14c.175.235.351.5.527.762a118.507 118.507 0 0112.68 24.899l20.742-13.106c33.305-20.922 60.738-15.219 71.812 13.164-.582-42.984-22.23-62.703-53.054-54.715zm0 0" fill="#82cc62"/><path d="M396.406 325.543c-9.789 63.668-69.242 107.383-132.816 97.582-63.602-9.773-107.223-69.316-97.465-133.016 9.758-63.671 69.242-107.386 132.816-97.586 63.602 9.774 107.223 69.32 97.465 133.02zm0 0" fill="#aeed93"/><path d="M377.473 242.063c-17.559-25.747-45.313-44.446-78.532-49.536-22.875-3.543-45.226-.117-64.918 8.63 8.91 3.484 15.426 11.206 17.442 20.394 15.164-4.094 31.406-5.18 47.941-2.633 31.906 4.914 58.785 22.355 76.403 46.555 11.336 15.535 18.843 33.851 21.414 53.43.437-4.391.586-8.75.527-13.083-.09-6.32-.703-12.523-1.813-18.578a115.854 115.854 0 00-5.257-19.515A118.351 118.351 0 00378 242.824zm-174.098 5.824c-4.879-4.918-7.684-11.59-8.035-18.844a116.656 116.656 0 00-13.176 17.41 115.625 115.625 0 00-12.094 26.54c-1.726 5.5-3.039 11.234-3.945 17.116a115.623 115.623 0 00-1.344 19.72c.059 4.507.406 8.952.961 13.316.235-2.196.5-4.391.848-6.614a116.435 116.435 0 0116.45-44.36 117.93 117.93 0 0120.335-24.284zm0 0" fill="#82cc62"/><path d="M283.602 416.016c3.593-23.555-12.532-45.559-36.051-49.188-19.926-3.07-38.742 8.074-46.219 25.867 16.594 15.711 37.977 26.711 62.258 30.43a114.85 114.85 0 0017.793 1.375c1.023-2.691 1.75-5.531 2.219-8.484zm67.988-68.352c2.16-14.191-7.54-27.45-21.707-29.64-14.172-2.165-27.406 7.578-29.567 21.738-2.191 14.191 7.536 27.445 21.707 29.64 14.141 2.164 27.403-7.547 29.567-21.738zm0 0" fill="#ffb370"/><path d="M127.676 60.973c-7.215-50.418 22.234-73.766 71.347-52.758 13.88-3.977 27.551-2.809 39.47 2.078l1.284.555c12.446 5.445 22.848 14.953 29.45 26.832 48.59 20.804 48.761 63.379 6.953 93.312l-25.125 18.082-118.18-52.55zM28.254 296.137C-12.91 326.039-9.172 363.46 40.059 384.18c6.808 12.758 17.18 21.77 28.98 26.918l1.29.554c12.562 5.153 26.612 6.032 39.73 2.489 48.734 20.484 79.382-9.012 71.726-59.926l-4.5-30.664-119.933-48.395zm0 0" fill="#e04b84"/><path d="M127.531 34.578c-1.285 7.668-1.258 16.504.145 26.395l4.937 33.617c.293-.059.586-.117.907-.176a116.846 116.846 0 0127.87-1.492l-3.562-24.313c-5.582-38.976 10.781-61.796 41.195-60.394-39.5-16.91-66.261-5.09-71.492 26.363zM28.254 296.137c-40.961 29.758-37.484 66.945 11.074 87.722-21.387-20.836-16.187-48.136 15.336-71.015l22-15.86c-7.45-6.554-13.875-13.898-19.312-21.828zm0 0" fill="#b7205a"/></g><path d="M181.32 103.793h-.132c-4.301-.07-7.731-3.621-7.66-7.926l.613-36.84c.07-4.304 3.656-7.71 7.918-7.664a7.79 7.79 0 017.66 7.926l-.61 36.836c-.074 4.262-3.547 7.668-7.789 7.668zm33.422 14.074a7.77 7.77 0 01-5.453-2.226 7.802 7.802 0 01-.113-11.028l25.707-26.277a7.792 7.792 0 0111.02-.113 7.802 7.802 0 01.113 11.027l-25.711 26.277a7.755 7.755 0 01-5.563 2.34zm-15.722-8.16a7.783 7.783 0 01-3.06-.629c-3.956-1.691-5.792-6.273-4.1-10.234l22.23-52.114c1.691-3.957 6.27-5.8 10.226-4.109a7.804 7.804 0 014.106 10.234l-22.234 52.114a7.8 7.8 0 01-7.168 4.738zM65.652 342.031a7.748 7.748 0 01-5.5-2.277c-3.05-3.04-3.054-7.977-.02-11.027l25.977-26.07a7.784 7.784 0 0111.016-.02 7.806 7.806 0 01.016 11.031l-25.973 26.07a7.761 7.761 0 01-5.516 2.293zm58.375 24.957c-.066 0-.132 0-.199-.004a7.794 7.794 0 01-7.59-7.992l.934-36.75c.11-4.305 3.676-7.715 7.988-7.597 4.3.109 7.7 3.687 7.59 7.992l-.938 36.75a7.794 7.794 0 01-7.785 7.601zm-37.754 9.836c-1 0-2.023-.195-3.007-.61-3.97-1.663-5.836-6.234-4.172-10.206l21.883-52.258a7.787 7.787 0 0110.195-4.18 7.806 7.806 0 014.176 10.207l-21.883 52.258a7.8 7.8 0 01-7.192 4.79zm0 0" fill="#b7205a"/><path d="M216.465 111.125c54.164 34.79 69.914 106.945 35.176 161.195-34.711 54.246-106.786 70.016-160.922 35.227-54.168-34.79-69.914-106.945-35.18-161.195 34.711-54.22 106.79-69.989 160.926-35.227zm0 0" fill="#f57e9c" fill-rule="evenodd"/><path d="M132.613 94.59c-30.648 5.62-58.957 23.469-77.07 51.762-12.504 19.52-18.465 41.375-18.465 62.937 6.777-6.726 16.477-9.566 25.68-7.695 2.426-15.535 8.035-30.84 17.062-44.942 17.414-27.183 44.235-44.738 73.477-51.058 18.758-4.04 38.539-3.48 57.469 2.105a108.99 108.99 0 00-11.743-5.793 112.811 112.811 0 00-17.707-5.91 115.425 115.425 0 00-19.925-3.07 116.644 116.644 0 00-27.871 1.492zM67.285 256.313c-6.453 2.457-13.7 2.34-20.45-.293a118.67 118.67 0 0010.517 19.136c5.437 7.93 11.863 15.274 19.316 21.828a118.26 118.26 0 0014.05 10.563 117.574 117.574 0 0017.442 9.246 118.49 118.49 0 0012.535 4.508 130.797 130.797 0 01-5.695-3.453c-13.852-8.899-25.188-20.22-33.805-33.094a116.267 116.267 0 01-13.91-28.442zm0 0" fill="#ce4d78" fill-rule="evenodd"/><path d="M72.43 205.547c-11.426-7.344-26.09-5.445-35.352 3.742.031 16.066 3.332 32.012 9.758 46.73 12.328 4.829 26.234 1.231 34.184-11.18 7.945-12.401 4.613-30.808-8.59-39.292zm180.847 45.558c-20.043-12.875-46.687-7.023-59.515 13.02-10.867 17-8.356 38.738 4.851 52.816 21.067-8.808 39.762-23.906 53.028-44.62a117.39 117.39 0 008.472-15.747 41.944 41.944 0 00-6.836-5.469zm-34.797-89.976c-12.066-7.754-28.105-4.242-35.847 7.844-7.742 12.082-4.235 28.148 7.828 35.898 12.066 7.754 28.105 4.246 35.848-7.84 7.742-12.086 4.238-28.148-7.829-35.902zm0 0" fill="#9bdeda" fill-rule="evenodd"/><path d="M62.758 201.594c-9.203-1.871-18.903.969-25.68 7.695.031 16.066 3.332 32.012 9.758 46.73 6.75 2.633 13.996 2.75 20.45.294-5.755-17.497-7.391-36.282-4.528-54.72zm0 0" fill="#4bc6c0" fill-rule="evenodd"/></svg>